<svg xmlns="http://www.w3.org/2000/svg" width="545" height="91" viewBox="0 0 545 91">
    <g fill="none" fill-rule="evenodd">
        <g fill-rule="nonzero">
            <g transform="translate(-736 -441) translate(736 441)">
                <path fill="#24272A" d="M60 53.205v34.06c0 .46-.184.902-.511 1.227-.328.325-.772.508-1.235.508h-8.387c-.962-.004-1.742-.778-1.746-1.735V53.331c0-11.696-6.443-18.125-18.125-18.125-10.562.105-18.237 8.143-18.237 19.104v32.955c-.004.957-.783 1.731-1.746 1.735H1.746C.782 89 0 88.223 0 87.265V26.728c-.005-.849.608-1.577 1.45-1.72h4.155c3.06-.003 5.605 2.335 5.844 5.365l.043 1.665C16.462 26.826 23.272 24 31.08 24 48.93 24.007 60 35.2 60 53.205zM127 26.722v60.563c-.004.957-.785 1.731-1.75 1.735h-3.873c-2.843-.077-5.222-2.165-5.645-4.955l-.056-2.141c-4.981 5.13-11.903 7.957-19.974 8.076C78.26 90 67 78.537 67 60.79V26.721c.002-.459.187-.898.515-1.22.329-.324.773-.504 1.235-.502h8.276c.465-.002.912.18 1.242.506.33.326.515.768.515 1.23V60.69c0 11.442 6.547 18.007 17.97 18.007h.29c10.583 0 18.294-7.992 18.294-18.994V26.722c.008-.953.79-1.722 1.75-1.722h8.163c.462-.002.906.178 1.235.501.328.323.513.762.515 1.22zM196.692 25.787c-.33-.482-.876-.769-1.458-.766h-9.153c-.709.005-1.345.438-1.613 1.099L164.986 74.4 145.524 26.1c-.268-.663-.908-1.097-1.62-1.099h-9.152c-.587-.002-1.136.293-1.46.786-.325.492-.382 1.115-.153 1.66l25.714 61.477c.273.653.908 1.078 1.612 1.077h9.154c.703 0 1.338-.425 1.612-1.077l25.644-61.478c.217-.549.149-1.17-.183-1.658zM229 24c-19.428 0-33 13.852-33 33.68C196 76.986 209.874 91 229 91c19.428 0 33-13.703 33-33.32C262 38.066 248.112 24 229 24zm0 55.65c-12.723 0-21.267-8.826-21.267-21.976 0-13.3 8.748-22.586 21.267-22.586s21.26 9.286 21.26 22.586c0 13.15-8.544 21.976-21.26 21.976zM301 24c-19.428 0-33 13.852-33 33.68C268 76.986 281.867 91 301 91c19.428 0 33-13.703 33-33.32C334 38.066 320.126 24 301 24zm0 55.65c-12.716 0-21.26-8.826-21.26-21.976 0-13.3 8.741-22.586 21.26-22.586 12.519 0 21.267 9.286 21.267 22.586 0 13.15-8.544 21.976-21.267 21.976z"/>
                <rect width="12" height="90" x="341" fill="#24272A" rx="6"/>
                <g fill="#0097A7">
                    <path d="M81.758 20.565c3.237 0 5.86 2.624 5.86 5.86v53.42c0 3.237-2.623 5.861-5.86 5.861-3.236 0-5.86-2.624-5.86-5.86v-53.42c0-3.237 2.624-5.86 5.86-5.86zM81.758 0c3.237 0 5.86 2.624 5.86 5.86v2.942c0 3.237-2.623 5.86-5.86 5.86-3.236 0-5.86-2.623-5.86-5.86V5.861c0-3.237 2.624-5.861 5.86-5.861zM54.955 27.26c-4.611-3.899-10.23-6.42-16.212-7.275-1.858-.289-3.735-.432-5.615-.427C13.616 19.558 0 33.37 0 53.148v.175C.442 72.119 14.037 85.68 32.728 85.68c8.492.056 16.613-3.471 22.36-9.714v3.112c.231 2.957 2.647 5.27 5.616 5.375h3.727c.96-.003 1.736-.78 1.74-1.738V51.158c-.47-9.889-4.611-18.264-11.216-23.898zm-1.923 34.557c-.881 2.12-2.102 4.082-3.614 5.81-3.938 4.478-9.588 6.833-16.332 6.833-11.595 0-20.207-8.13-21.267-19.623-.006-.023-.006-.047 0-.07-.063-.778-.098-1.556-.098-2.355 0-12.727 8.984-21.957 21.379-21.957 14.963 0 21.757 11.417 21.757 22.013.01 3.206-.61 6.382-1.825 9.349z" transform="translate(457 5)"/>
                </g>
                <path fill="#24272A" d="M415.813 32.688c-4.6-3.892-10.204-6.408-16.17-7.261-1.853-.289-3.726-.431-5.601-.427C374.581 25 361 38.788 361 58.528v.175c.441 18.76 14 32.296 32.643 32.296 8.47.057 16.57-3.464 22.303-9.695v3.106c.23 2.951 2.64 5.26 5.6 5.365h3.718c.957-.004 1.732-.778 1.736-1.735V56.541c-.469-9.87-4.6-18.23-11.187-23.853zm-1.918 34.493c-.88 2.115-2.097 4.074-3.605 5.799-3.927 4.47-9.563 6.82-16.29 6.82-11.565 0-20.154-8.114-21.211-19.586-.007-.023-.007-.047 0-.07-.063-.777-.098-1.553-.098-2.35 0-12.704 8.96-21.916 21.323-21.916 14.925 0 21.701 11.395 21.701 21.971.01 3.2-.608 6.37-1.82 9.332z"/>
            </g>
        </g>
    </g>
</svg>
